After The Sunset 2004 BRRip H264 AAC-Rx(Phoenix-RG).mp4
Format : MPEG-4
Format profile : Base Media
Codec ID : isom
File size : 1.44 GiB
Duration : 1h 37mn
Overall bit rate : 2 125 Kbps

Video #1
Format : AVC
Format/Info : Advanced Video Codec
Format profile : High@L4.1
Format settings, CABAC : Yes
Format settings, ReFrames : 3 frames
Codec ID : avc1
Codec ID/Info : Advanced Video Coding
Duration : 1h 37mn
Bit rate mode : Variable
Bit rate : 1 800 Kbps
Maximum bit rate : 12.7 Mbps
Width : 1 280 pixels
Height : 536 pixels
Display aspect ratio : 2.35
Frame rate mode : Constant
Frame rate : 23.976 fps
Resolution : 24 bits
Colorimetry : 4:2:0
Scan type : Progressive
Bits/(Pixel*Frame) : 0.109
Stream size : 1.22 GiB (85%)
Writing library : x264 core 98 r1649 c54c47d

Audio #2
Format : AAC
Format/Info : Advanced Audio Codec
Format version : Version 4
Format profile : LC
Format settings, SBR : No
Codec ID : 40
Duration : 1h 37mn
Bit rate mode : Variable
Bit rate : 322 Kbps
Maximum bit rate : 395 Kbps
Channel(s) : 6 channels
Channel positions : Front: L C R, Rear: L R, LFE
Sampling rate : 48.0 KHz
Resolution : 16 bits
Stream size : 224 MiB (15%)
 
http://www.imdb.com/title/tt0367479/


PLOT

The story of what happens after a master thief achieves his last big score, when the FBI agent who promised he'd capture him is about to do just that. .................


 
http://i865.photobucket.com/albums/ab211/revisionx/Screenshot/vlcsnap-250571.jpg
 
http://i865.photobucket.com/albums/ab211/revisionx/Screenshot/vlcsnap-250329.jpg
 
http://i865.photobucket.com/albums/ab211/revisionx/Screenshot/vlcsnap-250729.jpg




CAST

Pierce Brosnan ... Max Burdett
Salma Hayek ... Lola Cirillo
Woody Harrelson ... Stan Lloyd
Don Cheadle ... Henri Mooré
Naomie Harris ... Sophie
Chris Penn ... Rowdy Fan
Troy Garity ... Luc
Obba Babatundé ... Zacharias (as Obba Babatunde)
Russell Hornsby ... Jean-Paul
Mykelti Williamson ... Agent Stafford
Rex Linn ... Agent Kowalski
Robert Curtis Brown ... Lakers FBI Agent
Mark Moses ... Lakers FBI Agent
Michael Bowen ... FBI Driver
Tony Ledard ... Referee